<svg width="317" height="339" viewBox="0 0 317 339" fill="none" xmlns="http://www.w3.org/2000/svg">
<path d="M161.243 293.767C166.909 301.767 185.443 321.867 214.243 338.267L231.243 322.267L214.243 311.267V273.767L256.243 213.267L299.743 222.267L315.743 200.767L299.743 193.767L271.243 97.2674L281.743 65.2674L189.743 0.767395L165.743 58.7674L116.743 49.2674L99.7426 91.7674L82.2426 108.767L62.2426 97.2674L51.7426 115.267L62.2426 123.267L57.2426 142.767L67.7426 159.767L0.742566 222.267L9.74257 230.267L35.7426 222.267L67.7426 248.267L92.7426 273.767L125.743 287.267L161.243 293.767Z" stroke="black"/>
</svg>
